<mxfile host="app.diagrams.net" modified="2023-10-29T20:22:41.765Z" agent="Mozilla/5.0 (Windows NT 10.0; Win64; x64) AppleWebKit/537.36 (KHTML, like Gecko) Chrome/118.0.0.0 Safari/537.36" etag="zDGR2SFwqytBgxN-g7Dr" version="22.0.8" type="device">
  <diagram id="C5RBs43oDa-KdzZeNtuy" name="Page-1">
    <mxGraphModel dx="1434" dy="764" grid="1" gridSize="10" guides="1" tooltips="1" connect="1" arrows="1" fold="1" page="1" pageScale="1" pageWidth="827" pageHeight="1169" math="0" shadow="0">
      <root>
        <mxCell id="WIyWlLk6GJQsqaUBKTNV-0" />
        <mxCell id="WIyWlLk6GJQsqaUBKTNV-1" parent="WIyWlLk6GJQsqaUBKTNV-0" />
        <mxCell id="57It6b_2Moie9gRtz3hh-3" value="Initialize variables" style="rounded=1;whiteSpace=wrap;html=1;absoluteArcSize=1;arcSize=14;strokeWidth=2;" vertex="1" parent="WIyWlLk6GJQsqaUBKTNV-1">
          <mxGeometry x="90" y="20" width="120" height="40" as="geometry" />
        </mxCell>
        <mxCell id="57It6b_2Moie9gRtz3hh-22" style="edgeStyle=orthogonalEdgeStyle;rounded=0;orthogonalLoop=1;jettySize=auto;html=1;exitX=0.5;exitY=1;exitDx=0;exitDy=0;entryX=0.5;entryY=0;entryDx=0;entryDy=0;" edge="1" parent="WIyWlLk6GJQsqaUBKTNV-1" source="57It6b_2Moie9gRtz3hh-18" target="57It6b_2Moie9gRtz3hh-21">
          <mxGeometry relative="1" as="geometry" />
        </mxCell>
        <mxCell id="57It6b_2Moie9gRtz3hh-18" value="Message the user to input 2 numbers" style="rounded=1;whiteSpace=wrap;html=1;absoluteArcSize=1;arcSize=14;strokeWidth=2;" vertex="1" parent="WIyWlLk6GJQsqaUBKTNV-1">
          <mxGeometry x="80" y="90" width="160" height="50" as="geometry" />
        </mxCell>
        <mxCell id="57It6b_2Moie9gRtz3hh-20" style="edgeStyle=orthogonalEdgeStyle;rounded=0;orthogonalLoop=1;jettySize=auto;html=1;exitX=0.5;exitY=1;exitDx=0;exitDy=0;entryX=0.55;entryY=-0.02;entryDx=0;entryDy=0;entryPerimeter=0;" edge="1" parent="WIyWlLk6GJQsqaUBKTNV-1" source="57It6b_2Moie9gRtz3hh-3" target="57It6b_2Moie9gRtz3hh-18">
          <mxGeometry relative="1" as="geometry" />
        </mxCell>
        <mxCell id="57It6b_2Moie9gRtz3hh-25" style="edgeStyle=orthogonalEdgeStyle;rounded=0;orthogonalLoop=1;jettySize=auto;html=1;exitX=0.5;exitY=1;exitDx=0;exitDy=0;entryX=0.5;entryY=0;entryDx=0;entryDy=0;" edge="1" parent="WIyWlLk6GJQsqaUBKTNV-1" source="57It6b_2Moie9gRtz3hh-21" target="57It6b_2Moie9gRtz3hh-24">
          <mxGeometry relative="1" as="geometry" />
        </mxCell>
        <mxCell id="57It6b_2Moie9gRtz3hh-21" value="whait for 2 inputs by the user" style="rounded=1;whiteSpace=wrap;html=1;absoluteArcSize=1;arcSize=14;strokeWidth=2;" vertex="1" parent="WIyWlLk6GJQsqaUBKTNV-1">
          <mxGeometry x="110" y="170" width="100" height="50" as="geometry" />
        </mxCell>
        <mxCell id="57It6b_2Moie9gRtz3hh-29" value="yes" style="edgeStyle=orthogonalEdgeStyle;rounded=0;orthogonalLoop=1;jettySize=auto;html=1;exitX=0.5;exitY=1;exitDx=0;exitDy=0;exitPerimeter=0;entryX=0;entryY=0.5;entryDx=0;entryDy=0;" edge="1" parent="WIyWlLk6GJQsqaUBKTNV-1" source="57It6b_2Moie9gRtz3hh-23" target="57It6b_2Moie9gRtz3hh-24">
          <mxGeometry relative="1" as="geometry">
            <Array as="points">
              <mxPoint x="160" y="560" />
              <mxPoint x="20" y="560" />
              <mxPoint x="20" y="270" />
            </Array>
          </mxGeometry>
        </mxCell>
        <mxCell id="57It6b_2Moie9gRtz3hh-30" value="no" style="edgeStyle=orthogonalEdgeStyle;rounded=0;orthogonalLoop=1;jettySize=auto;html=1;exitX=0.5;exitY=1;exitDx=0;exitDy=0;exitPerimeter=0;entryX=0;entryY=0.25;entryDx=0;entryDy=0;" edge="1" parent="WIyWlLk6GJQsqaUBKTNV-1" source="57It6b_2Moie9gRtz3hh-23" target="57It6b_2Moie9gRtz3hh-31">
          <mxGeometry relative="1" as="geometry">
            <mxPoint x="310" y="560" as="targetPoint" />
          </mxGeometry>
        </mxCell>
        <mxCell id="57It6b_2Moie9gRtz3hh-23" value="while the iterations in the loop are lower than the first number that the user has inputted combine the second input with itself" style="strokeWidth=2;html=1;shape=mxgraph.flowchart.decision;whiteSpace=wrap;" vertex="1" parent="WIyWlLk6GJQsqaUBKTNV-1">
          <mxGeometry x="30" y="340" width="260" height="220" as="geometry" />
        </mxCell>
        <mxCell id="57It6b_2Moie9gRtz3hh-24" value="for loop" style="rounded=1;whiteSpace=wrap;html=1;absoluteArcSize=1;arcSize=14;strokeWidth=2;" vertex="1" parent="WIyWlLk6GJQsqaUBKTNV-1">
          <mxGeometry x="130" y="250" width="60" height="40" as="geometry" />
        </mxCell>
        <mxCell id="57It6b_2Moie9gRtz3hh-28" style="edgeStyle=orthogonalEdgeStyle;rounded=0;orthogonalLoop=1;jettySize=auto;html=1;exitX=0.5;exitY=1;exitDx=0;exitDy=0;entryX=0.5;entryY=0;entryDx=0;entryDy=0;entryPerimeter=0;" edge="1" parent="WIyWlLk6GJQsqaUBKTNV-1" source="57It6b_2Moie9gRtz3hh-24" target="57It6b_2Moie9gRtz3hh-23">
          <mxGeometry relative="1" as="geometry" />
        </mxCell>
        <mxCell id="57It6b_2Moie9gRtz3hh-31" value="Display message of the calculated result" style="rounded=1;whiteSpace=wrap;html=1;absoluteArcSize=1;arcSize=14;strokeWidth=2;" vertex="1" parent="WIyWlLk6GJQsqaUBKTNV-1">
          <mxGeometry x="330" y="470" width="100" height="100" as="geometry" />
        </mxCell>
      </root>
    </mxGraphModel>
  </diagram>
</mxfile>
